<svg width="512" height="512" xmlns="http://www.w3.org/2000/svg">

 <g>
  <title>background</title>
  <rect fill="none" id="canvas_background" height="402" width="582" y="-1" x="-1"/>
 </g>
 <g>
  <title>Layer 1</title>
  <path fill="#ff7f00" id="svg_2" d="m119.735001,73.5l13.315994,0l0.06601,51.130997c0.003998,3.414001 2.772995,6.869003 6.187988,6.869003c0.002014,0 0.004013,0 0.008011,0c3.417999,0 6.18399,-3.468994 6.179993,-6.885002l-0.065994,-51.114998l13.265991,0c2.166,0 4.084,-0.495003 4.889008,-2.501999c0.807007,-2.008003 0.313995,-3.869003 -1.251999,-5.362999l-19.479004,-18.408001c-2.039001,-1.945 -5.231995,-1.849003 -7.272995,0.100998l-19.480003,18.66c-1.564003,1.494003 -2.055,2.979004 -1.25,4.987c0.805,2.007004 2.723,2.525002 4.887001,2.525002z"/>
  <path fill="#ff7f00" id="svg_3" d="m371,143.626007c-3.420013,0 -5.5,2.768005 -5.5,6.188004l0,18.720993c2,-0.562988 7,-1.056992 11,-1.485992l0,-17.234009c0,-3.421005 -2.079987,-6.188995 -5.5,-6.188995z"/>
  <path fill="#ff7f00" id="svg_4" d="m352.427002,73.5l13.317993,0l0.063995,51.130997c0.003998,3.414001 2.77301,6.869003 6.188019,6.869003c0.001984,0 0.005981,0 0.007996,0c3.417999,0 6.18399,-3.468994 6.179993,-6.885002l-0.065002,-51.114998l13.265991,0c2.164001,0 3.819,-0.492996 4.623993,-2.5c0.807007,-2.008003 1.490021,-3.714996 -1.509979,-5.209l0,0.123001l-19.21701,-18.547001c-2.040985,-1.947002 -5.10498,-1.917999 -7.144989,0.030998l-19.411987,18.623005c-1.56601,1.493996 -2.026001,2.959 -1.220001,4.970993c0.803986,2.008003 2.756989,2.508003 4.92099,2.508003z"/>
  <path fill="#ff7f00" id="svg_5" d="m286.673004,100.679001l-8.984009,-27.650002c-0.46701,-1.439003 0.045013,-3.014 1.27002,-3.902l23.519989,-17.701c2.735992,-1.987999 1.332001,-6.924999 -2.050995,-6.924999l-29.074005,0c-1.511993,0 -2.854004,-0.363998 -3.320007,-1.800999l-8.984009,-27.345001c-1.044983,-3.217 -5.595993,-3.063999 -6.640991,0.152l-8.983994,27.117001c-0.46701,1.438 -1.809006,1.876999 -3.320007,1.876999l-29.07399,0c-3.380997,0 -4.787003,4.937 -2.050995,6.924999l23.520996,17.396999c1.225006,0.887001 1.736008,2.615005 1.268005,4.055l-8.984009,27.725998c-1.044998,3.217003 2.637009,5.93 5.373001,3.941002l23.521011,-17.07c1.222992,-0.889 2.878998,-0.878998 4.104004,0.011002l23.520996,17.092003c2.733978,1.987999 6.413971,-0.681999 5.368988,-3.899002z"/>
  <path fill="#ff7f00" id="svg_6" d="m457.403015,446.862c0.895996,0.096008 1.261017,0.144989 2.157013,0.144989c12.958984,0 22.938995,-10.562988 22.938995,-23.52298l0,-227.032013c-2,-0.241989 -7,-0.460999 -9,-0.630997l0,-14.666c0,-7.108994 -5.186005,-13.048996 -12.230011,-13.768005c-16.895996,-1.731995 -48.895996,-3.89299 -83.65799,-0.339996c-4.096008,0.430008 -8.192993,0.923996 -12.334015,1.486008c-38.608978,5.466995 -77.958984,18.673996 -102.751984,47.69899c-0.006012,0.008011 -0.024994,0.016006 -0.024994,0.02301l0,271.627014c2,-0.902008 7.108978,-2.615021 10.194977,-5.070007c18.242004,-14.485992 60.223022,-38.786987 137.527008,-38.786987c15.06897,0.000977 30.901978,0.969971 47.181,2.836975zm-156.498016,-202.740005c37.924011,-20.994003 77.218994,-28.475006 123.674011,-23.544998c3.39798,0.360992 5.858978,3.405991 5.5,6.806992c-0.359009,3.395996 -3.400024,5.848007 -6.807007,5.5c-43.800995,-4.655991 -80.781006,2.359009 -116.373016,22.063995c-0.950989,0.525009 -1.978973,0.775009 -2.991974,0.775009c-2.178009,0 -4.289001,-1.150009 -5.417999,-3.19101c-1.656006,-2.989975 -0.574005,-6.755981 2.415985,-8.409988zm0,44.18602c37.924011,-20.994019 77.218994,-28.480011 123.674011,-23.545013c3.39798,0.361023 5.858978,3.40802 5.5,6.807007c-0.359009,3.395996 -3.400024,5.847992 -6.807007,5.5c-43.800995,-4.656006 -80.781006,2.360992 -116.373016,22.063995c-0.950989,0.524994 -1.978973,0.774994 -2.991974,0.774994c-2.178009,0 -4.289001,-1.149994 -5.417999,-3.190979c-1.656006,-2.990021 -0.574005,-6.756012 2.415985,-8.410004zm0,44.184998c37.924011,-20.992004 77.218994,-28.479004 123.674011,-23.545013c3.39798,0.361023 5.858978,3.40802 5.5,6.807007c-0.359009,3.395996 -3.400024,5.847992 -6.807007,5.5c-43.800995,-4.656006 -80.781006,2.360992 -116.373016,22.063995c-0.950989,0.527008 -1.978973,0.775024 -2.991974,0.775024c-2.178009,0 -4.289001,-1.150024 -5.417999,-3.19101c-1.656006,-2.990021 -0.574005,-6.756012 2.415985,-8.410004zm5.993988,55.011993c-0.950989,0.527008 -1.979004,0.777008 -2.992004,0.777008c-2.177979,0 -4.289001,-1.152008 -5.417999,-3.193024c-1.656006,-2.98999 -0.574005,-6.753998 2.416016,-8.40799c37.923981,-20.993988 77.218994,-28.479004 123.673981,-23.546997c3.39801,0.360992 5.859009,3.40799 5.5,6.807007s-3.399994,5.845978 -6.806976,5.5c-43.800018,-4.657013 -80.781006,2.360992 -116.373016,22.063995z"/>
  <path fill="#ff7f00" id="svg_7" d="m145.5,168.350998l0,-18.537003c0,-3.419998 -3.580002,-6.187988 -7,-6.187988s-7,2.76799 -7,6.187988l0,15.686005c0,0 1.522003,0 1.516998,0c-34.469002,-2 -66.298996,-0.585999 -83.060997,1.145996c-7.043003,0.719009 -12.456001,7.400009 -12.456001,14.509003l0,14.666c-4,0.169998 -7,0.389008 -9,0.630997l0,227.031006c0,12.960999 10.257999,23.52301 23.219002,23.52301c0.921997,0 1.676998,-0.049011 2.573997,-0.144989c16.278999,-1.867004 32.101997,-2.835999 47.194,-2.835999c77.279007,0 118.843002,24.300995 137.085007,38.786987c3.080002,2.446991 7.928009,4.15799 9.928009,5.06601l0,-272.004028c-25.000015,-29.220993 -65.000015,-42.120987 -103.000015,-47.522995zm66.192001,216.737991c-1.130997,2.041016 -3.242004,3.192993 -5.419998,3.192993c-1.014008,0 -2.041,-0.25 -2.990005,-0.776978c-35.591995,-19.703003 -72.569992,-26.713013 -116.373001,-22.064026c-3.405998,0.344025 -6.445,-2.10199 -6.806999,-5.5s2.102005,-6.444977 5.5,-6.806976c46.459007,-4.926025 85.748009,2.550995 123.674004,23.546997c2.988998,1.653992 4.070999,5.417999 2.416,8.40799zm0,-44.185974c-1.130997,2.041016 -3.242004,3.19101 -5.419998,3.19101c-1.014008,0 -2.041,-0.248016 -2.990005,-0.774994c-35.591995,-19.703003 -72.569992,-26.711029 -116.373001,-22.064026c-3.405998,0.34201 -6.445,-2.10199 -6.806999,-5.5s2.102005,-6.444977 5.5,-6.806976c46.459007,-4.928009 85.748009,2.548981 123.674004,23.544983c2.988998,1.653992 4.070999,5.419983 2.416,8.410004zm0,-44.185028c-1.130997,2.041016 -3.242004,3.19101 -5.419998,3.19101c-1.014008,0 -2.041,-0.25 -2.990005,-0.774994c-35.591995,-19.703003 -72.569992,-26.715027 -116.373001,-22.064026c-3.405998,0.34201 -6.445,-2.10199 -6.806999,-5.5s2.102005,-6.444977 5.5,-6.806976c46.459007,-4.924011 85.748009,2.550995 123.674004,23.544983c2.988998,1.654022 4.070999,5.420013 2.416,8.410004zm0,-44.185989c-1.130997,2.041 -3.242004,3.19101 -5.419998,3.19101c-1.014008,0 -2.041,-0.25 -2.990005,-0.775009c-35.591995,-19.703003 -72.569992,-26.712997 -116.373001,-22.063995c-3.405998,0.343994 -6.445,-2.102005 -6.806999,-5.5c-0.361,-3.400009 2.102005,-6.445007 5.5,-6.807007c46.459007,-4.925995 85.748009,2.55101 123.674004,23.544998c2.988998,1.654007 4.070999,5.420013 2.416,8.410004z"/>
  <path fill="#ff7f00" id="svg_8" d="m483.367004,466.304993c-103.769012,-10.960999 -166.240997,12.195007 -198.845001,32.195007l197.188995,0c9.359009,0 16.787994,-6.958008 16.787994,-16.315002l0,-29.339996c0.001007,8.188995 -6.987,14.311005 -15.131989,13.459991z"/>
  <path fill="#ff7f00" id="svg_9" d="m27.877001,466.304993c-8.145,0.85199 -15.377001,-5.270996 -15.377001,-13.459991l0,29.339996c0,9.356995 7.872,16.315002 17.233,16.315002l197.188997,0c-32.578995,-20 -95.274994,-43.156006 -199.044996,-32.195007z"/>
 </g>
</svg>