<svg width="512" height="512" xmlns="http://www.w3.org/2000/svg">

 <g>
  <title>background</title>
  <rect fill="none" id="canvas_background" height="402" width="582" y="-1" x="-1"/>
 </g>
 <g>
  <title>Layer 1</title>
  <path fill="#ff7f00" id="svg_2" fill-rule="evenodd" clip-rule="evenodd" d="m385.03299,195.029999c-2.121002,-2.119995 -5.075012,-3.436996 -8.321991,-3.436996c-3.221008,0 -6.175995,1.315994 -8.296021,3.436996c-2.147003,2.121994 -3.463989,5.074997 -3.463989,8.322998c0,3.25 1.31601,6.203003 3.436005,8.296997c2.122986,2.14801 5.074982,3.464005 8.324005,3.464005c3.194,0 6.067993,-1.263 8.164001,-3.302002l0.15799,-0.162003c2.122009,-2.120987 3.437988,-5.046997 3.437988,-8.296997c0.000031,-3.248001 -1.315979,-6.201004 -3.437988,-8.322998m-198.416992,245.915009l23.520996,0c-10.577988,-27.46701 -19.010986,-132.770996 -19.035995,-133.093994c-0.132996,-1.825012 1.235001,-3.408997 3.031998,-3.542999c1.82901,-0.13501 3.411011,1.234009 3.544006,3.061005c0,0.348999 9.427002,118.835999 19.414993,133.575989l123.397995,0c6.552002,-5.825989 6.660004,-23.171997 6.765991,-40.300995c0.109009,-17.264984 0.214996,-34.312988 7.223022,-42.233978c9.987976,-11.277008 21.481995,-10.498016 35.89798,-9.532013c3.649994,0.242004 7.518005,0.510986 11.32901,0.563995c24.218994,0.402008 29.346008,-12.001984 29.562988,-26.42099c0.105011,-5.557007 -0.483978,-11.545013 -1.048981,-17.264008c-1.477997,-15.089996 -2.818024,-28.540985 8.053986,-32.890991c1.854004,-0.752014 2.765991,-0.938995 4.403992,-1.234009l1.477997,-0.296997c13.961029,-2.845001 18.20401,-6.121002 17.396027,-10.067017c-0.855011,-4.350983 -6.306,-10.33699 -12.671997,-17.344986c-5.77301,-6.363007 -12.298004,-13.559006 -17.345001,-21.720993c-5.559021,-8.99501 -5.450012,-21.830002 -5.288025,-37.48201c0.322021,-34.341003 0.778015,-83.018997 -61.59198,-127.856995c-31.199005,-22.446003 -72.14502,-32.918001 -111.936005,-30.527002c-38.154999,2.281 -75.205002,16.432001 -101.46701,43.254c-27.598991,28.138 -39.386993,62.935997 -37.908997,98.135002c1.558006,37.509003 18.175003,75.554993 46.742996,106.591995c15.144012,16.459015 17.776001,61.942017 20.194,103.988007c1.423019,24.379974 2.767014,47.577972 6.336014,62.639984zm95.019989,-299.587006l23.117004,3.490005l0,11.975998l-23.117004,3.48999l-0.561981,3.141006l-0.779022,3.222992l-0.940002,3.088013l-1.102997,3.113998l18.285004,14.578995l-5.987,10.391006l-21.77301,-8.565002l-2.065979,2.444l-2.285004,2.388992l-2.334015,2.229004l-2.52298,2.147995l8.562988,21.775009l-10.391998,5.987l-14.578003,-18.283997l-2.980011,1.07399c-2.280991,0.671005 -4.028992,1.154007 -6.309998,1.69101l-3.274002,0.616989l-3.463989,23.117004l-12.003983,0l-3.492004,-23.117004l-3.141006,-0.563995l-3.222,-0.779007l-3.087997,-0.911987l-3.112991,-1.126999l-14.57901,18.283997l-10.391998,-5.987l8.567001,-21.775009l-2.417999,-2.065994l-2.417999,-2.283005l-2.199997,-2.335999l-2.17601,-2.524002l-21.744995,8.565002l-6.014999,-10.390991l18.283997,-14.57901l-1.10199,-3.033997l-0.91301,-3.167999l-0.750992,-3.087997l-0.593002,-3.275009l-23.117004,-3.463989l0,-12.028l23.093002,-3.464005l0.589005,-3.141998l0.778992,-3.222l0.91301,-3.113998l1.10199,-3.087997l-18.283997,-14.580009l6.014999,-10.390999l21.744995,8.565002l2.123001,-2.443001l2.253006,-2.417l2.365997,-2.228996l2.471008,-2.120003l-8.567001,-21.775002l10.391998,-5.987l14.578995,18.285004l3.059998,-1.102005l3.141006,-0.911995l3.087997,-0.752007l3.274002,-0.590996l3.492004,-23.145004l12.001999,0l3.463989,23.117004l3.113007,0.562996l3.25,0.778999l3.061005,0.913002l3.140991,1.127998l14.578018,-18.284996l10.391998,5.987l-8.562988,21.775002l2.467987,2.095001l2.389984,2.280998l2.20401,2.335999l2.147003,2.497002l21.77301,-8.565002l5.987,10.390999l-18.285004,14.580009l1.102997,3.060989l0.940002,3.141998l0.751007,3.087006l0.589966,3.276001zm162.009003,319.079987c1.799988,0 3.306,1.47699 3.306,3.302002c0,1.825989 -1.506012,3.303009 -3.306,3.303009l-50.744995,0c-1.825012,0 -3.303009,-1.47702 -3.303009,-3.303009c0,-1.825012 1.477997,-3.302002 3.303009,-3.302002l50.744995,0zm-63.013,18.956024c1.825012,0 3.302002,1.47699 3.302002,3.303009c0,1.824982 -1.47699,3.302979 -3.302002,3.302979l-114.996002,0c-1.82901,0 -3.303009,-1.477997 -3.303009,-3.302979c0,-1.826019 1.473999,-3.303009 3.303009,-3.303009l114.996002,0zm-260.415985,6.60498c-1.797005,0 -3.303001,-1.477997 -3.303001,-3.303009c0,-1.825989 1.505997,-3.303009 3.303001,-3.303009l50.747009,0c1.824997,0 3.302994,1.47702 3.302994,3.303009c0,1.825012 -1.478012,3.303009 -3.302994,3.303009l-50.747009,0zm95.503998,0c-1.796997,0 -3.302002,-1.477997 -3.302002,-3.303009c0,-1.825989 1.505005,-3.303009 3.302002,-3.303009l23.145004,0c1.824997,0 3.302994,1.47702 3.302994,3.303009c0,1.825012 -1.477997,3.303009 -3.302994,3.303009l-23.145004,0zm-121.116005,-211.627991c1.126007,1.421997 0.884003,3.48999 -0.564995,4.591003c-1.421005,1.127991 -3.487999,0.885986 -4.618004,-0.563019l-13.291,-16.996979l0,155.485016c0,1.825989 -1.473999,3.302979 -3.302994,3.302979c-1.797005,0 -3.302002,-1.47699 -3.302002,-3.302979l0,-155.485016l-13.305,16.996002c-1.098,1.449005 -3.166,1.69101 -4.604,0.562988c-1.435001,-1.100983 -1.677002,-3.168976 -0.575001,-4.591003l19.048996,-24.325989c0.590004,-0.912994 1.583,-1.503998 2.737007,-1.503998c1.154999,0 2.175995,0.591003 2.765999,1.503998l19.010994,24.326996zm32.059006,49.053009c1.125999,1.424011 0.855995,3.492004 -0.565002,4.618988c-1.425003,1.10202 -3.491997,0.859009 -4.619003,-0.563995l-13.290993,-16.994995l0,155.485016c0,1.825989 -1.478004,3.302979 -3.302002,3.302979c-1.825005,0 -3.303001,-1.47699 -3.303001,-3.302979l0,-155.486023l-13.290001,16.994995c-1.101997,1.424011 -3.168999,1.666016 -4.618996,0.563995c-1.421005,-1.126984 -1.664001,-3.195007 -0.565002,-4.618988l19.039001,-24.324005c0.561996,-0.886993 1.583,-1.47699 2.737,-1.47699c1.153999,0 2.175995,0.589996 2.765999,1.47699l19.012001,24.325012zm56.57,143.618988c-1.824997,0 -3.303009,-1.47699 -3.303009,-3.303009c0,-1.824982 1.478012,-3.302002 3.303009,-3.302002l178.44101,0c1.828003,0 3.306,1.47702 3.306,3.302002c0,1.826019 -1.477997,3.303009 -3.306,3.303009l-178.44101,0z"/>
 </g>
</svg>