<svg width="64" height="64" xmlns="http://www.w3.org/2000/svg">

 <g>
  <title>background</title>
  <rect fill="none" id="canvas_background" height="402" width="582" y="-1" x="-1"/>
 </g>
 <g>
  <title>Layer 1</title>
  <circle id="svg_2" r="32" fill="#ff7f00" cy="32" cx="32"/>
  <path opacity="0.2" id="svg_4" fill="#231F20" d="m49.424999,19.650999l-13.710999,-7.916999c-1.992001,-1.150001 -5.436001,-1.150001 -7.428001,0l-13.710999,7.916999c-2.047999,1.182001 -3.714,4.068001 -3.714,6.433001l0,15.832001c0,2.364998 1.667,5.250999 3.714,6.432999l13.710999,7.917c0.996,0.575001 2.315001,0.892002 3.714001,0.892002s2.717999,-0.317001 3.714001,-0.892002l13.710999,-7.917c2.048,-1.181999 3.714001,-4.068001 3.714001,-6.432999l0,-15.832001c0.000999,-2.365 -1.666,-5.250999 -3.714001,-6.433001z"/>
  <path id="svg_7" fill="#E0E0D1" d="m35.464001,10.168c-1.905003,-1.1 -5.023001,-1.1 -6.928001,0l-13.710999,7.915999c-1.905,1.1 -3.464,3.800001 -3.464,6l0,15.832001c0,2.200001 1.559,4.900002 3.464,6l13.710999,7.916c1.905001,1.099998 5.022999,1.099998 6.928001,0l13.710999,-7.916c1.905003,-1.099998 3.464001,-3.799999 3.464001,-6l0,-15.832001c0,-2.199999 -1.558998,-4.9 -3.464001,-6l-13.710999,-7.915999z"/>
  <path id="svg_8" fill="#E0E0D1" d="m32,55.157001c-1.399,0 -2.718,-0.316002 -3.714001,-0.893002l-13.710999,-7.916c-2.047999,-1.181999 -3.714,-4.067001 -3.714,-6.432999l0,-15.831001c0,-2.365 1.667,-5.250999 3.714,-6.433001l13.710999,-7.915999c1.992001,-1.151999 5.436001,-1.151999 7.428001,0l13.710999,7.915999c2.048,1.182001 3.714001,4.067001 3.714001,6.433001l0,15.832001c0,2.364998 -1.667,5.250999 -3.714001,6.432999l-13.710999,7.916c-0.996002,0.576 -2.315002,0.892002 -3.714001,0.892002zm0,-45.314001c-1.226,0 -2.367001,0.27 -3.214001,0.757999l-13.710999,7.916c-1.742,1.006001 -3.214,3.556 -3.214,5.566999l0,15.832001c0,2.012001 1.472,4.562 3.214,5.567001l13.710999,7.915997c1.693001,0.977001 4.734001,0.977001 6.428001,0l13.710999,-7.915997c1.742001,-1.006001 3.214001,-3.556004 3.214001,-5.567001l0,-15.832001c0,-2.011999 -1.472,-4.562 -3.214001,-5.566999l-13.710999,-7.916c-0.847,-0.488999 -1.987999,-0.757999 -3.214001,-0.757999z"/>
  <path id="svg_10" fill="#FFFFFF" d="m32,29.825001c-1.122999,0 -2.202999,-0.252001 -2.964001,-0.691l-13.710999,-7.917002c-0.59,-0.341 -0.929,-0.754 -0.929,-1.133999c0,-0.379 0.339,-0.792999 0.929,-1.132999l13.710999,-7.917001c0.761002,-0.439 1.841002,-0.691 2.964001,-0.691s2.202999,0.252 2.964001,0.691l13.710999,7.917001c0.59,0.34 0.929001,0.754 0.929001,1.132999c0,0.379999 -0.339001,0.792999 -0.929001,1.133999l-13.710999,7.916c-0.761002,0.440001 -1.841,0.692001 -2.964001,0.692001z"/>
  <path id="svg_12" fill="#FFFFFF" d="m29.909,53.301998c-0.300001,0 -0.659,-0.115997 -1.039,-0.334999l-13.712001,-7.917c-1.607,-0.926998 -2.964,-3.278 -2.964,-5.133999l0,-15.832001c0,-0.441999 0.09,-1.469999 0.925,-1.469999c0.299,0 0.658999,0.115999 1.039,0.336l13.710999,7.915998c1.606001,0.928001 2.964001,3.279001 2.964001,5.134001l0,15.833c0,0.516998 -0.112,0.940998 -0.315001,1.195c-0.15,0.187 -0.344,0.273998 -0.608999,0.273998l0,0z"/>
  <path id="svg_14" fill="#FFFFFF" d="m33.924999,53.301998c-0.834999,0 -0.924999,-1.026997 -0.924999,-1.468998l0,-15.833c0,-1.855 1.356998,-4.205999 2.964001,-5.134001l13.710999,-7.915998c0.380001,-0.220001 0.740002,-0.336 1.039001,-0.336c0.834999,0 0.924999,1.028 0.924999,1.469999l0,15.832001c0,1.855 -1.356998,4.207001 -2.964001,5.133999l-13.710999,7.917c-0.380001,0.219002 -0.739002,0.334999 -1.039001,0.334999l0,0z"/>
  <path id="svg_16" fill="#4F5D73" d="m32,21.5c-1.264999,0 -2.333,-0.648001 -2.333,-1.416s1.069,-1.417 2.333,-1.417s2.333,0.649 2.333,1.417s-1.068001,1.416 -2.333,1.416z"/>
  <path id="svg_18" fill="#4F5D73" d="m15.146,42.368c-0.768,0 -1.416,-0.951 -1.416,-2.076s0.648001,-2.077 1.416,-2.077s1.416,0.951 1.416,2.077s-0.649,2.076 -1.416,2.076z"/>
  <path id="svg_20" fill="#4F5D73" d="m48.354,42.368c-0.768002,0 -1.416,-0.951 -1.416,-2.076s0.647999,-2.077 1.416,-2.077s1.416,0.951 1.416,2.077s-0.647999,2.076 -1.416,2.076z"/>
  <path id="svg_22" fill="#4F5D73" d="m15.146,30.431c-0.768,0 -1.416,-0.951 -1.416,-2.076c0,-1.125999 0.648001,-2.077 1.416,-2.077s1.416,0.951 1.416,2.077c0,1.125 -0.649,2.076 -1.416,2.076z"/>
  <path id="svg_24" fill="#4F5D73" d="m26.917,38.118c-0.768,0 -1.416,-0.951 -1.416,-2.077c0,-1.125999 0.648001,-2.077 1.416,-2.077s1.417,0.951 1.417,2.077c-0.000999,1.125999 -0.649,2.077 -1.417,2.077z"/>
  <path id="svg_26" fill="#4F5D73" d="m36.959,38.118c-0.767998,0 -1.416,-0.951 -1.416,-2.077c0,-1.125999 0.648003,-2.077 1.416,-2.077s1.417,0.951 1.417,2.077c-0.000999,1.125999 -0.649998,2.077 -1.417,2.077z"/>
  <path id="svg_28" fill="#4F5D73" d="m26.917,49.139c-0.768,0 -1.416,-0.951 -1.416,-2.077s0.648001,-2.077 1.416,-2.077s1.417,0.951 1.417,2.077s-0.649,2.077 -1.417,2.077z"/>
 </g>
</svg>