<svg width="32" height="32" xmlns="http://www.w3.org/2000/svg">

 <title/>
 <g>
  <title>background</title>
  <rect fill="none" id="canvas_background" height="402" width="582" y="-1" x="-1"/>
 </g>
 <g>
  <title>Layer 1</title>
  <path fill="#ff7f00" id="svg_1" d="m21,25l-3,0l0,-8l3,0a1,1 0 0 0 0,-2l-3,0l0,-8l3,0a1,1 0 0 0 0,-2l-3,0a2,2 0 0 0 -2,2l0,8l-3,0a1,1 0 0 0 0,2l3,0l0,8a2,2 0 0 0 2,2l3,0a1,1 0 0 0 0,-2z" class="cls-1"/>
  <path fill="#ff7f00" id="svg_2" d="m9.28,17l0,0a5,5 0 0 0 0.72,-3a3.16,3.16 0 0 0 -3,-3a3.16,3.16 0 0 0 -3,3a5,5 0 0 0 0.74,3l0,0c-0.36,0.1 -2.72,1.200001 -2.72,3a1,1 0 0 0 2,0c0,-0.280001 0.89,-0.879999 1.28,-1l0.11,0a2.35,2.35 0 0 0 1.1,-0.57a2.63,2.63 0 0 0 1,0a2.35,2.35 0 0 0 1.099999,0.57l0.070001,0c0.429999,0.16 1.28,0.77 1.32,1.049999a1,1 0 0 0 2,0c0,-1.809999 -2.36,-2.91 -2.72,-3.049999zm-2.28,-4a1.17,1.17 0 0 1 1,1a2.68,2.68 0 0 1 -0.71,2.290001l0,0a0.35,0.35 0 0 1 -0.58,0a2.68,2.68 0 0 1 -0.71,-2.290001a1.17,1.17 0 0 1 1,-1z" class="cls-1"/>
  <path fill="#ff7f00" id="svg_3" d="m28.059999,26.66a4.16,4.16 0 0 0 0.440001,-2.16a2.5,2.5 0 0 0 -5,0a4.16,4.16 0 0 0 0.440001,2.16c-0.640001,0.34 -1.940001,1.1 -1.940001,2.34a1,1 0 0 0 1,1a1,1 0 0 0 1,-1a2.11,2.11 0 0 1 0.860001,-0.639999a2,2 0 0 0 0.84,-0.41a1.63,1.63 0 0 0 0.309999,0a1.73,1.73 0 0 0 0.32,0a2,2 0 0 0 0.85,0.41a2.24,2.24 0 0 1 0.83,0.619999a1,1 0 0 0 1.99,0.02c0,-1.24 -1.299999,-2 -1.940001,-2.34zm-2.059999,-2.66a0.64,0.64 0 0 1 0.5,0.5c0,0.75 0,1.1 -0.459999,1.540001l-0.040001,0c-0.440001,-0.440001 -0.459999,-0.790001 -0.459999,-1.540001a0.64,0.64 0 0 1 0.459999,-0.5z" class="cls-1"/>
  <path fill="#ff7f00" id="svg_4" d="m28.059999,16.66a4.16,4.16 0 0 0 0.440001,-2.16a2.5,2.5 0 0 0 -5,0a4.16,4.16 0 0 0 0.440001,2.16c-0.640001,0.34 -1.940001,1.1 -1.940001,2.34a1,1 0 0 0 1,1a1,1 0 0 0 1,-1a2.11,2.11 0 0 1 0.860001,-0.639999a2,2 0 0 0 0.84,-0.41a1.63,1.63 0 0 0 0.309999,0a1.73,1.73 0 0 0 0.32,0a2,2 0 0 0 0.85,0.41a2.24,2.24 0 0 1 0.83,0.619999a1,1 0 0 0 1.99,0.02c0,-1.24 -1.299999,-2 -1.940001,-2.34zm-2.059999,-2.66a0.64,0.64 0 0 1 0.5,0.5c0,0.75 0,1.1 -0.459999,1.540001l-0.040001,0c-0.440001,-0.440001 -0.459999,-0.790001 -0.459999,-1.540001a0.64,0.64 0 0 1 0.459999,-0.5z" class="cls-1"/>
  <path fill="#ff7f00" id="svg_5" d="m22,9a1,1 0 0 0 1,1a1,1 0 0 0 1,-1a2.11,2.11 0 0 1 0.860001,-0.64a2,2 0 0 0 0.83,-0.36a1.63,1.63 0 0 0 0.309999,0a1.73,1.73 0 0 0 0.32,0a2,2 0 0 0 0.85,0.41a2.24,2.24 0 0 1 0.83,0.62a1,1 0 0 0 2,-0.03c0,-1.24 -1.299999,-2 -1.93,-2.34a4.24,4.24 0 0 0 0.43,-2.16a2.5,2.5 0 0 0 -5,0a4.24,4.24 0 0 0 0.43,2.16c-0.630001,0.34 -1.93,1.1 -1.93,2.34zm4,-5a0.64,0.64 0 0 1 0.5,0.5c0,0.75 0,1.1 -0.459999,1.54l-0.040001,0c-0.440001,-0.44 -0.459999,-0.79 -0.459999,-1.54a0.64,0.64 0 0 1 0.459999,-0.5z" class="cls-1"/>
 </g>
</svg>